<svg width="24" height="24" viewBox="0 0 24 24" fill="none" xmlns="http://www.w3.org/2000/svg">
<path d="M6 15C5.16667 15 4.45833 14.7084 3.875 14.125C3.29167 13.5417 3 12.8334 3 12V8.00005H16.025C16.1083 7.45005 16.3333 6.95838 16.7 6.52505C17.0667 6.09172 17.5167 5.78338 18.05 5.60005L22.675 4.05005L23.3 5.95005L18.675 7.50005C18.475 7.56672 18.3125 7.68755 18.1875 7.86255C18.0625 8.03755 18 8.23338 18 8.45005V12C18 12.8334 17.7083 13.5417 17.125 14.125C16.5417 14.7084 15.8333 15 15 15H6ZM6 13H15C15.2833 13 15.5208 12.9042 15.7125 12.7125C15.9042 12.5209 16 12.2834 16 12V10H5V12C5 12.2834 5.09583 12.5209 5.2875 12.7125C5.47917 12.9042 5.71667 13 6 13ZM9 21V18H2V16H9C9.55 16 10.0208 16.1959 10.4125 16.5875C10.8042 16.9792 11 17.45 11 18V21H9ZM13 21V18C13 17.45 13.1958 16.9792 13.5875 16.5875C13.9792 16.1959 14.45 16 15 16H22V18H15V21H13Z" fill="#385459"/>
</svg>
