<svg width="24" height="24" viewBox="0 0 24 24" fill="none" xmlns="http://www.w3.org/2000/svg">
<path d="M17.825 6.175L20.65 3.35C20.85 3.15 21.0877 3.05 21.363 3.05C21.6383 3.05 21.8757 3.15 22.075 3.35C22.2743 3.55 22.3743 3.78767 22.375 4.063C22.3757 4.33833 22.2757 4.57567 22.075 4.775L18.525 8.3C18.325 8.5 18.0917 8.6 17.825 8.6C17.5583 8.6 17.325 8.5 17.125 8.3L15.7 6.875C15.5167 6.69167 15.425 6.46267 15.425 6.188C15.425 5.91333 15.5167 5.67567 15.7 5.475C15.9 5.275 16.1377 5.175 16.413 5.175C16.6883 5.175 16.9257 5.275 17.125 5.475L17.825 6.175ZM12 18L7.8 19.8C7.13333 20.0833 6.5 20.0293 5.9 19.638C5.3 19.2467 5 18.6923 5 17.975V5C5 4.45 5.196 3.97933 5.588 3.588C5.98 3.19667 6.45067 3.00067 7 3H12C12.2833 3 12.521 3.096 12.713 3.288C12.905 3.48 13.0007 3.71733 13 4C12.9993 4.28267 12.9033 4.52033 12.712 4.713C12.5207 4.90567 12.2833 5.00133 12 5H7V17.95L12 15.8L17 17.95V12C17 11.7167 17.096 11.4793 17.288 11.288C17.48 11.0967 17.7173 11.0007 18 11C18.2827 10.9993 18.5203 11.0953 18.713 11.288C18.9057 11.4807 19.0013 11.718 19 12V17.975C19 18.6917 18.7 19.246 18.1 19.638C17.5 20.03 16.8667 20.084 16.2 19.8L12 18ZM12 5H7H13H12Z" fill="#385459"/>
</svg>
