<svg width="24" height="24" viewBox="0 0 24 24" fill="none" xmlns="http://www.w3.org/2000/svg">
<path d="M19.5 8.36957C18.1167 8.36957 17 9.47652 17 10.8478C17 10.9057 17 10.9635 17.0083 11.0213L15.3167 11.583C14.7833 10.5835 13.8 9.85652 12.6333 9.66652V7.88217C13.7 7.6013 14.5 6.63478 14.5 5.47826C14.5 4.10696 13.3833 3 12 3C10.6167 3 9.5 4.10696 9.5 5.47826C9.5 6.63478 10.3 7.6013 11.375 7.88217V9.66652C10.2083 9.85652 9.225 10.5835 8.69167 11.583L6.99167 11.0213C7 10.9635 7 10.9057 7 10.8478C7 9.47652 5.88333 8.36957 4.5 8.36957C3.11667 8.36957 2 9.47652 2 10.8478C2 12.2191 3.11667 13.3261 4.5 13.3261C5.38333 13.3261 6.15 12.8717 6.6 12.1943L8.29167 12.7561C8.125 13.8217 8.43333 14.9535 9.2 15.8043L8.025 17.2665C7.70833 17.1178 7.36667 17.0435 7 17.0435C5.61667 17.0435 4.5 18.1504 4.5 19.5217C4.5 20.893 5.61667 22 7 22C8.38333 22 9.5 20.893 9.5 19.5217C9.5 18.96 9.31667 18.4478 9 18.0348L10.175 16.5726C11.3083 17.2004 12.6917 17.1922 13.8167 16.5726L14.9917 18.0348C14.6833 18.4478 14.5 18.96 14.5 19.5217C14.5 20.893 15.6167 22 17 22C18.3833 22 19.5 20.893 19.5 19.5217C19.5 18.1504 18.3833 17.0435 17 17.0435C16.6333 17.0435 16.2917 17.1178 15.975 17.2583L14.8 15.7961C15.575 14.937 15.875 13.8135 15.7083 12.7478L17.4 12.1861C17.8417 12.8635 18.6167 13.3178 19.5 13.3178C20.8833 13.3178 22 12.2109 22 10.8396C22 9.46826 20.8833 8.36957 19.5 8.36957ZM4.5 11.6739C4.04167 11.6739 3.66667 11.3022 3.66667 10.8478C3.66667 10.3935 4.04167 10.0217 4.5 10.0217C4.95833 10.0217 5.33333 10.3935 5.33333 10.8478C5.33333 11.3022 4.95833 11.6739 4.5 11.6739ZM7 20.3478C6.54167 20.3478 6.16667 19.9761 6.16667 19.5217C6.16667 19.0674 6.54167 18.6957 7 18.6957C7.45833 18.6957 7.83333 19.0674 7.83333 19.5217C7.83333 19.9761 7.45833 20.3478 7 20.3478ZM11.1667 5.47826C11.1667 5.02391 11.5417 4.65217 12 4.65217C12.4583 4.65217 12.8333 5.02391 12.8333 5.47826C12.8333 5.93261 12.4583 6.30435 12 6.30435C11.5417 6.30435 11.1667 5.93261 11.1667 5.47826ZM12 15.3913C10.85 15.3913 9.91667 14.4661 9.91667 13.3261C9.91667 12.1861 10.85 11.2609 12 11.2609C13.15 11.2609 14.0833 12.1861 14.0833 13.3261C14.0833 14.4661 13.15 15.3913 12 15.3913ZM17 18.6957C17.4583 18.6957 17.8333 19.0674 17.8333 19.5217C17.8333 19.9761 17.4583 20.3478 17 20.3478C16.5417 20.3478 16.1667 19.9761 16.1667 19.5217C16.1667 19.0674 16.5417 18.6957 17 18.6957ZM19.5 11.6739C19.0417 11.6739 18.6667 11.3022 18.6667 10.8478C18.6667 10.3935 19.0417 10.0217 19.5 10.0217C19.9583 10.0217 20.3333 10.3935 20.3333 10.8478C20.3333 11.3022 19.9583 11.6739 19.5 11.6739Z" fill="#385459"/>
</svg>
