<svg width="24" height="24" viewBox="0 0 24 24" fill="none" xmlns="http://www.w3.org/2000/svg">
<path d="M4 6V18H20V6H4ZM10.3818 14C11.4451 14 12.4189 14.6009 12.8945 15.5537C13.141 16.0478 12.9404 16.6479 12.4463 16.8945C11.9522 17.141 11.3521 16.9404 11.1055 16.4463C10.969 16.1732 10.6885 16 10.3818 16H7.61816C7.31149 16 7.03095 16.1732 6.89453 16.4463C6.6479 16.9404 6.04781 17.141 5.55371 16.8945C5.05964 16.6479 4.85895 16.0478 5.10547 15.5537C5.58108 14.6009 6.55491 14 7.61816 14H10.3818ZM18 14C18.5523 14 19 14.4477 19 15C19 15.5523 18.5523 16 18 16H15C14.4477 16 14 15.5523 14 15C14 14.4477 14.4477 14 15 14H18ZM10 10C10 9.73478 9.89457 9.48051 9.70703 9.29297C9.51949 9.10543 9.26522 9 9 9C8.73478 9 8.48051 9.10543 8.29297 9.29297C8.10543 9.48051 8 9.73478 8 10C8 10.2652 8.10543 10.5195 8.29297 10.707C8.48051 10.8946 8.73478 11 9 11C9.26522 11 9.51949 10.8946 9.70703 10.707C9.89457 10.5195 10 10.2652 10 10ZM18 11C18.5523 11 19 11.4477 19 12C19 12.5523 18.5523 13 18 13H15C14.4477 13 14 12.5523 14 12C14 11.4477 14.4477 11 15 11H18ZM18 8C18.5523 8 19 8.44772 19 9C19 9.55228 18.5523 10 18 10H15C14.4477 10 14 9.55228 14 9C14 8.44772 14.4477 8 15 8H18ZM12 10C12 10.7957 11.6837 11.5585 11.1211 12.1211C10.5585 12.6837 9.79565 13 9 13C8.20435 13 7.44151 12.6837 6.87891 12.1211C6.3163 11.5585 6 10.7956 6 10C6 9.20435 6.3163 8.44152 6.87891 7.87891C7.44151 7.3163 8.20435 7 9 7C9.79565 7 10.5585 7.3163 11.1211 7.87891C11.6837 8.44151 12 9.20435 12 10ZM22 18C22 18.5304 21.7891 19.039 21.4141 19.4141C21.039 19.7891 20.5304 20 20 20H4C3.46957 20 2.96101 19.7891 2.58594 19.4141C2.21086 19.039 2 18.5304 2 18V6C2 5.46957 2.21086 4.96101 2.58594 4.58594C2.96101 4.21087 3.46957 4 4 4H20C20.5304 4 21.039 4.21087 21.4141 4.58594C21.7891 4.96101 22 5.46957 22 6V18Z" fill="#385459"/>
</svg>
